<mxfile host="app.diagrams.net" modified="2022-10-13T09:26:05.676Z" agent="5.0 (Windows NT 10.0; Win64; x64) AppleWebKit/537.36 (KHTML, like Gecko) Chrome/106.0.0.0 Safari/537.36 Edg/106.0.1370.42" etag="4TjbpMLCVtLeFmS8ip4n" version="20.3.1" type="github">
  <diagram id="H5bZnThyTOFxZsQUVONp" name="第 1 页">
    <mxGraphModel dx="945" dy="580" grid="1" gridSize="10" guides="1" tooltips="1" connect="1" arrows="1" fold="1" page="1" pageScale="1" pageWidth="827" pageHeight="1169" math="0" shadow="0">
      <root>
        <mxCell id="0" />
        <mxCell id="1" parent="0" />
        <mxCell id="RP0lO2xO3x5Leja-OyaU-3" style="edgeStyle=orthogonalEdgeStyle;rounded=0;orthogonalLoop=1;jettySize=auto;html=1;entryX=-0.012;entryY=0.37;entryDx=0;entryDy=0;entryPerimeter=0;" edge="1" parent="1" source="RP0lO2xO3x5Leja-OyaU-1">
          <mxGeometry relative="1" as="geometry">
            <mxPoint x="248.55999999999995" y="180.20000000000005" as="targetPoint" />
          </mxGeometry>
        </mxCell>
        <mxCell id="RP0lO2xO3x5Leja-OyaU-1" value="Actor" style="shape=umlActor;verticalLabelPosition=bottom;verticalAlign=top;html=1;outlineConnect=0;" vertex="1" parent="1">
          <mxGeometry x="50" y="150" width="30" height="60" as="geometry" />
        </mxCell>
        <mxCell id="RP0lO2xO3x5Leja-OyaU-8" value="" style="edgeStyle=orthogonalEdgeStyle;rounded=0;orthogonalLoop=1;jettySize=auto;html=1;" edge="1" parent="1" source="RP0lO2xO3x5Leja-OyaU-6" target="RP0lO2xO3x5Leja-OyaU-7">
          <mxGeometry relative="1" as="geometry" />
        </mxCell>
        <mxCell id="RP0lO2xO3x5Leja-OyaU-6" value="LoginController" style="rounded=0;whiteSpace=wrap;html=1;" vertex="1" parent="1">
          <mxGeometry x="250" y="150" width="120" height="60" as="geometry" />
        </mxCell>
        <mxCell id="RP0lO2xO3x5Leja-OyaU-10" value="" style="edgeStyle=orthogonalEdgeStyle;rounded=0;orthogonalLoop=1;jettySize=auto;html=1;" edge="1" parent="1" source="RP0lO2xO3x5Leja-OyaU-7" target="RP0lO2xO3x5Leja-OyaU-9">
          <mxGeometry relative="1" as="geometry" />
        </mxCell>
        <mxCell id="RP0lO2xO3x5Leja-OyaU-7" value="verifyCode" style="rounded=0;whiteSpace=wrap;html=1;" vertex="1" parent="1">
          <mxGeometry x="250" y="290" width="120" height="60" as="geometry" />
        </mxCell>
        <mxCell id="RP0lO2xO3x5Leja-OyaU-12" value="" style="edgeStyle=orthogonalEdgeStyle;rounded=0;orthogonalLoop=1;jettySize=auto;html=1;" edge="1" parent="1" source="RP0lO2xO3x5Leja-OyaU-9" target="RP0lO2xO3x5Leja-OyaU-11">
          <mxGeometry relative="1" as="geometry" />
        </mxCell>
        <mxCell id="RP0lO2xO3x5Leja-OyaU-15" style="edgeStyle=orthogonalEdgeStyle;rounded=0;orthogonalLoop=1;jettySize=auto;html=1;exitX=1;exitY=0.5;exitDx=0;exitDy=0;" edge="1" parent="1" source="RP0lO2xO3x5Leja-OyaU-9">
          <mxGeometry relative="1" as="geometry">
            <mxPoint x="610" y="590" as="targetPoint" />
          </mxGeometry>
        </mxCell>
        <mxCell id="RP0lO2xO3x5Leja-OyaU-9" value="判断用户是否已经存在" style="rhombus;whiteSpace=wrap;html=1;rounded=0;" vertex="1" parent="1">
          <mxGeometry x="270" y="420" width="80" height="80" as="geometry" />
        </mxCell>
        <mxCell id="RP0lO2xO3x5Leja-OyaU-11" value="sendVerifyCodeByLogin" style="rounded=0;whiteSpace=wrap;html=1;" vertex="1" parent="1">
          <mxGeometry x="250" y="590" width="120" height="60" as="geometry" />
        </mxCell>
        <mxCell id="RP0lO2xO3x5Leja-OyaU-13" value="是" style="text;html=1;strokeColor=none;fillColor=none;align=center;verticalAlign=middle;whiteSpace=wrap;rounded=0;" vertex="1" parent="1">
          <mxGeometry x="240" y="520" width="60" height="30" as="geometry" />
        </mxCell>
        <mxCell id="RP0lO2xO3x5Leja-OyaU-14" value="发送验证码，将验证码存入redis，并预热用户数据" style="text;html=1;strokeColor=none;fillColor=none;align=center;verticalAlign=middle;whiteSpace=wrap;rounded=0;" vertex="1" parent="1">
          <mxGeometry x="160" y="605" width="60" height="30" as="geometry" />
        </mxCell>
        <mxCell id="RP0lO2xO3x5Leja-OyaU-16" value="sendVerifyCodeByRegister" style="rounded=0;whiteSpace=wrap;html=1;" vertex="1" parent="1">
          <mxGeometry x="550" y="585" width="120" height="60" as="geometry" />
        </mxCell>
        <mxCell id="RP0lO2xO3x5Leja-OyaU-17" value="否" style="text;html=1;strokeColor=none;fillColor=none;align=center;verticalAlign=middle;whiteSpace=wrap;rounded=0;" vertex="1" parent="1">
          <mxGeometry x="550" y="510" width="60" height="30" as="geometry" />
        </mxCell>
        <mxCell id="RP0lO2xO3x5Leja-OyaU-18" value="发送验证码，并且创建用户信息，预热用户信息。" style="text;html=1;strokeColor=none;fillColor=none;align=center;verticalAlign=middle;whiteSpace=wrap;rounded=0;" vertex="1" parent="1">
          <mxGeometry x="460" y="600" width="60" height="30" as="geometry" />
        </mxCell>
        <mxCell id="RP0lO2xO3x5Leja-OyaU-19" value="isUserExists" style="text;html=1;strokeColor=none;fillColor=none;align=center;verticalAlign=middle;whiteSpace=wrap;rounded=0;" vertex="1" parent="1">
          <mxGeometry x="190" y="430" width="60" height="30" as="geometry" />
        </mxCell>
      </root>
    </mxGraphModel>
  </diagram>
</mxfile>
